<?xml version="1.0" encoding="utf-8"?>
<!-- Generator: Adobe Illustrator 26.2.1, SVG Export Plug-In . SVG Version: 6.00 Build 0)  -->
<svg version="1.1" id="Layer_1" xmlns="http://www.w3.org/2000/svg" xmlns:xlink="http://www.w3.org/1999/xlink" x="0px" y="0px"
	 viewBox="0 0 3535.6 1433.5" style="enable-background:new 0 0 3535.6 1433.5;" xml:space="preserve">
<style type="text/css">
	.st0{opacity:0.214;}
	.st1{opacity:0.884;fill:#1A1A1A;enable-background:new    ;}
	.st2{fill:#040504;}
	.st3{font-family:'GillSans';}
	.st4{font-size:27.451px;}
</style>
<g id="Group_2_00000083051097552037146770000008087658062849833663_" transform="translate(0 0)" class="st0">
	<path id="Path_9_00000121264378553350488280000001625187771202877842_" class="st1" d="M3535.6,471.9l-155.3,25.6L1938.1,1017
		L697.4,592.6L264,787.1l-29.3-13.1l-45.2,85.4h-52.8l-29.1,24.5l-13.4,63.2l-54.9-51.9L0,889.5v537.2l3535.6,6.8"/>
	<path id="Path_11_00000095309726407318513800000012193845753216528514_" class="st2" d="M3535.6,25.6l-14.1-15.4L3503.9,0h-18.6
		l-12.1,10.2h-24.2l-20.4,37.2l-20.4,4.6l-16.7-14.9h-19.5l-10.2,13.9l-4.6,19.5l-11.2-7.4h-11.2v13.9l-31.6,4.3L3244.6,92
		l-7.4-10.5h-13v14.2l-47.4-14.2h-24.9l-25.3,25.3l-30.2,5.7l-30.2,46.6l-21.7,11.8l-6.5,46.2l-34.7,19.6l-11-16.3l-27.4-59.7
		l-50.3-35.6l-33.1-2l-21.7-23.7l-24.1-18h-18.4l-13.5,18.8l-3.7,44.5l-35.6,31.9l-20,9.8l-2,23.3l-21.6,2.1h-62.1l-8.5,21.2
		l-24,17.6l-33.9,43l-9.9,25.4l-24,11.3v31.7l-7.1,7.8l-16.9,33.2l-25.4,18.3l-31,0.7l-14.1,16.2l-9.2,36l-38.8,0.7l-16.2-10.6
		l-12.7-2.1l-24.7,6.3l-24.7-40.9l-23.3-1.4l-20.5-27.5H2280l-12,9.9l-38.1-1.4l-20.5-28.9l-31.7-16.2h-37.4l-32.4,42.9l-15.5,6.5
		l-4.2,35.3l-11.3,8.5v26.8l-5.6,9.9l-7.1-13.4h-15.5l-6.3,64.9l6.3,106.9l-15.5,35.4l-15.5-37.6l-26.6-6.6l-31,24.4l-39.3,3.2
		l-29.4-70.7l-24.7-42.4l-16.1-37.3l-17.8-2.5l-17-35.6l-21.2-4.2l-24.6-11.9l-36.9-10.5l-36.6-23.6l-48.5,1.2l-43.7-18.9h-29.5
		l-31.9-7.3l-47.3,27.4h-29.6l-29.5-10.6l-36.3-2.8l-25.1-14h-41.9l-50.2,36.3l-33.5,33.5l-25.1,53l-67,47.4l-50.2,27.9l-48-1.7
		l-27.9,25.1h-50.2l-33.5,19.5l-49.7,71.4l-0.1,0.1l77.9,34.2l14.2,13.5l14.2,0.7l8.5,13.5l19.9,2.1l5,10.6l67.4-4.3l28.4,15.6
		l7.1-10.6l20.6,0.7l8.5,6.4v16.3l18.5,0.7l29.1,21.3l98.9,50.9l32.6-7.2l15.7-15.6h29l15.7,15.6l26.5-15.6h22.9l10.9,16.8l19.3-6
		l99.4,85l149.1,221.4l69.1-26.9h44.4l84.3,75.4l44.4-22.6h44.4l16.4,22.6h44.2l40.9,18.3l24.5-13.1l45.8,4.9l101.5,36l31.1-9.8
		h22.9l36.7,13.7l33.6-6.8h17.1l19.2,17.1l21.5-8.5l21-28.2h14.5l25-35.5l32.2-25.2l134.7-250.5l154.2-141.3l25.6-14.9h38.4
		l21.3-19.2h63.9l38.4-21.3l51.1-36.2l19.2-40.5l25.6-25.6l38.4-27.7h31.9l19.2,10.7l27.7,2.1l22.6,8.1h22.6l36.1-20.9l24.4,5.6
		h22.6l33.4,14.4l37-0.9l28,18.1l28.1,8.1l18.8,9.1"/>
</g>
<text transform="matrix(1 0 0 1 2817.8457 1053.3342)" class="st3 st4">Check out her resume here:</text>
</svg>
