<?xml version="1.0" encoding="UTF-8"?><svg id="a" xmlns="http://www.w3.org/2000/svg" viewBox="0 0 488.19 196.58"><defs><style>.g{fill:#060706;}.h{fill:#151515;}.i{fill:#191919;isolation:isolate;opacity:.88;}.j{opacity:.21;}</style></defs><g id="b" class="j" transform="translate(0)"><path id="c" class="i" d="M488.12,196.58H.12V79.81l-.02-7.58-.1-4.6,.1-9.52,.02-5.75v-5.58l3.3,2.81,5.4,5.33,16.36-1.18,21.94-6.96,133.26,22.01,199.44,71.82,108.36-38.49"/><path id="d" class="g" d="M5.99,52.12l.09,.08-.12,.17-1.4-.25h1.44Z"/><path id="e" class="g" d="M488.19,109.66l-.85,.1-1.18,.88v2.26l-2.55,.1-4.02,2.94-13.68,7.04-4.5-1-2.17-2.15h-4l-2.17,2.15-3.67-2.15h-3.17l-1.5,2.32-2.67-.83-13.74,11.76-20.62,30.61-9.56-3.72h-6.13l-11.66,10.43-6.13-3.13h-6.13l-2.26,3.13h-6.11l-5.66,2.52-3.39-1.81-6.34,.68-14.03,4.98-4.3-1.36h-3.17l-5.08,1.89-4.65-.94h-2.36l-2.66,2.36-2.98-1.18-2.91-3.91h-2l-3.45-4.91-4.46-3.48-18.62-34.64-21.32-19.54-3.54-2.06h-5.3l-2.95-2.65h-8.84l-5.3-2.95-7.07-5.01-2.65-5.6-3.54-3.54-5.3-3.83h-4.42l-2.65,1.47-3.84,.29-3.12,1.12h-3.12l-4.99-2.89-3.37,.77h-3.12l-4.62,2-5.12-.12-3.87,2.5-3.89,1.11-2.6,1.25-2.24,.45-1.79,3.77-1.88,.27-1.7,3.94-2.61,4.48-3.11,7.46-4.15-.33-3.27-2.57-2.81,.7-1.64,3.98-1.64-3.74,.67-11.29-.67-6.85h-1.64l-.74,1.42-.6-1.04v-2.83l-1.19-.89-.45-3.72-1.64-.68-3.43-4.53h-3.95l-3.35,1.71-2.16,3.05-4.02,.15-1.27-1.04h-1.49l-2.16,2.91-2.46,.15-2.61,4.32-2.61-.67-1.34,.22-1.71,1.12-4.1-.07-.97-3.8-1.49-1.71-3.28-.07-2.68-1.94-1.79-3.5-.74-.82v-3.35l-2.53-1.19-1.04-2.68-3.58-4.54-2.53-1.86-.89-2.24h-6.55l-2.29-.22-.22-2.46-2.11-1.04-3.75-3.37-.39-4.7-1.42-1.98h-1.94l-2.55,1.9-2.29,2.5-3.5,.22-5.31,3.75-2.89,6.3-1.16,1.73-3.67-2.07-.69-4.88-2.29-1.25-3.19-4.92-2.61-.49,13.63-7.02,5.27-3.85,3.34-.13v-2.96l1.54-1.16,3.72-.13,1.28,1.93,5.14-2.83,12.21,.77,.9-1.93,3.6-.38,1.54-2.44,2.57-.13,2.57-2.44,30.07-9.89,4.88-10.28,2.57-.13,3.6-3.98,5.14-1.28,1.41-1.93,3.6-1.16,1.54-2.18,7.19-.51,4.24,1.8,2.7,2.18,6.43-3.98h3.47l4.5,3.85,3.21-2.44,2.44-1.41h2.57l1.67,1.41h3.34l2.83,5.14,2.83,.64,2.31-2.06h2.7l1.41,1.93,.64,2.7,1.54-1.03h1.54v1.93l4.37,.6,8.1,1.45,1.03-1.45h1.8v1.97l6.55-1.97h3.45l3.5,3.5,4.18,.79,4.18,6.44,2.99,1.64,.9,6.38,4.8,2.71,1.53-2.26,3.78-8.25,6.95-4.92,4.58-.28,2.99-3.28,3.33-2.49h2.54l1.86,2.6,.51,6.16,4.92,4.41,2.77,1.36,.28,3.22,2.99,.29h8.58l1.17,2.93,3.32,2.44,4.68,5.95,1.37,3.51,3.32,1.56v4.39l.98,1.07,2.34,4.58,3.51,2.54,4.29,.1,1.95,2.24,1.27,4.97,5.36,.1,2.24-1.46,1.76-.29,3.41,.88,3.41-5.66,3.22-.2,2.83-3.8h1.95l1.66,1.37,5.27-.2,2.83-4,4.39-2.24h5.17l4.49,5.93,2.15,.89,.58,4.88,1.56,1.17v3.71l.78,1.37,.98-1.85h2.15l.88,8.97-.88,14.78,2.14,4.9,2.14-5.2,3.67-.92,4.29,3.37,5.44,.44,4.07-9.77,3.42-5.86,2.23-5.16,2.46-.35,2.35-4.93,2.93-.59,3.4-1.64,5.1-1.46,5.07-3.27,6.7,.16,6.05-2.62h4.09l4.41-1.01,6.54,3.79h4.09l4.09-1.47,5.02-.39,3.47-1.93h5.79l6.95,5.02,4.63,4.63,3.47,7.33,9.26,6.56"/><path id="f" class="h" d="M8.83,54.94l-2.76-2.73,.67-.94h1.37v1.5l5-1.5h2.63l2.67,2.68,.58,.11-4.28,2.2-5.9-1.31Z"/></g></svg>