<?xml version="1.0" encoding="utf-8"?>
<!-- Generator: Adobe Illustrator 26.2.1, SVG Export Plug-In . SVG Version: 6.00 Build 0)  -->
<svg version="1.1" id="a" xmlns="http://www.w3.org/2000/svg" xmlns:xlink="http://www.w3.org/1999/xlink" x="0px" y="0px"
	 viewBox="0 0 134.6 47.2" style="enable-background:new 0 0 134.6 47.2;" xml:space="preserve">
<g id="b" transform="translate(0 92)">
	<g>
		<path d="M1.3-91.8h2.5v15.1h7.8v2.3H1.3V-91.8z"/>
		<path d="M13.8-91.8h9.9v2.2h-7.4v5.3h7.1v2.2h-7.1v5.4h7.6v2.2H13.8V-91.8z"/>
		<path d="M25.1-91.8h14.6v2.2h-6.1v15.2h-2.5v-15.2h-6C25.1-89.6,25.1-91.8,25.1-91.8z"/>
		<path d="M46.3-81.6l-1.9-1.1c-1.2-0.7-2-1.4-2.5-2.1c-0.5-0.7-0.8-1.5-0.8-2.4c0-1.4,0.5-2.5,1.4-3.3c1-0.9,2.2-1.3,3.7-1.3
			s2.8,0.4,4,1.2v2.8c-1.3-1.2-2.6-1.8-4-1.8c-0.8,0-1.5,0.2-2,0.6c-0.5,0.4-0.8,0.9-0.8,1.4c0,0.5,0.2,1,0.6,1.5
			c0.4,0.5,1,0.9,1.9,1.4l1.9,1.1c2.1,1.3,3.2,2.9,3.2,4.8c0,1.4-0.5,2.5-1.4,3.4c-0.9,0.9-2.2,1.3-3.7,1.3c-1.7,0-3.3-0.5-4.7-1.6
			v-3.2c1.3,1.7,2.9,2.6,4.7,2.6c0.8,0,1.4-0.2,2-0.7c0.5-0.4,0.8-1,0.8-1.6C48.6-79.7,47.9-80.7,46.3-81.6L46.3-81.6z"/>
		<path d="M79.8-91.8h2.5l-7,17.5h-0.6L69-88.4l-5.7,14.2h-0.5l-7-17.5h2.5l4.8,12l4.8-12h2.4l4.8,12L79.8-91.8z"/>
		<path d="M91.8-92c2.7,0,4.9,0.8,6.7,2.6c1.8,1.7,2.7,3.8,2.7,6.4c0,2.6-0.9,4.7-2.7,6.4c-1.8,1.7-4.1,2.5-6.8,2.5
			s-4.8-0.8-6.6-2.5s-2.6-3.8-2.6-6.3s0.9-4.8,2.6-6.5C86.8-91.1,89.1-92,91.8-92z M91.9-89.6c-2,0-3.6,0.6-4.9,1.9S85-84.9,85-83
			c0,1.9,0.6,3.4,1.9,4.7c1.3,1.2,2.9,1.9,4.8,1.9c1.9,0,3.6-0.6,4.9-1.9c1.3-1.3,1.9-2.8,1.9-4.8s-0.7-3.4-1.9-4.7
			C95.3-89,93.7-89.6,91.9-89.6L91.9-89.6z"/>
		<path d="M104.3-74.3v-17.4h4.4c1.8,0,3.2,0.4,4.2,1.3c1,0.9,1.6,2.1,1.6,3.5c0,1-0.2,1.9-0.8,2.6c-0.5,0.7-1.2,1.3-2.2,1.7
			c0.6,0.4,1.1,0.9,1.6,1.5c0.5,0.6,1.3,1.7,2.2,3.3c0.6,1,1.1,1.7,1.5,2.2l0.9,1.2h-3l-0.8-1.2c0,0-0.1-0.1-0.2-0.2l-0.5-0.7
			l-0.8-1.3l-0.8-1.4c-0.5-0.7-1-1.3-1.4-1.7c-0.4-0.4-0.8-0.7-1.2-0.9c-0.3-0.2-0.9-0.3-1.7-0.3h-0.7v7.6H104.3L104.3-74.3z
			 M107.5-89.6h-0.8v5.5h0.9c1.3,0,2.1-0.1,2.6-0.3c0.5-0.2,0.8-0.5,1.1-1c0.3-0.4,0.4-0.9,0.4-1.5c0-0.6-0.1-1.1-0.4-1.5
			c-0.3-0.4-0.7-0.8-1.2-0.9S108.8-89.6,107.5-89.6L107.5-89.6z"/>
		<path d="M129.5-91.8h3.1l-7.6,8.3l9.4,9.2h-3.4l-8.9-8.6v8.6h-2.5v-17.4h2.5v8L129.5-91.8z"/>
	</g>
	<g>
		<path d="M-0.2-62.4h14.6v2.2H8.3V-45H5.8v-15.2h-6C-0.2-60.2-0.2-62.4-0.2-62.4z"/>
		<path d="M23.6-62.6c2.7,0,4.9,0.8,6.7,2.6c1.8,1.7,2.7,3.8,2.7,6.4c0,2.6-0.9,4.7-2.7,6.4s-4.1,2.5-6.8,2.5s-4.8-0.8-6.6-2.5
			s-2.6-3.8-2.6-6.3c0-2.5,0.9-4.8,2.6-6.5C18.7-61.8,20.9-62.6,23.6-62.6z M23.7-60.3c-2,0-3.6,0.6-4.9,1.9s-1.9,2.8-1.9,4.8
			s0.6,3.4,1.9,4.7s2.9,1.9,4.8,1.9s3.6-0.6,4.9-1.9c1.3-1.3,2-2.8,2-4.8s-0.6-3.4-2-4.7C27.2-59.7,25.6-60.3,23.7-60.3L23.7-60.3z"
			/>
		<path d="M45.5-53.6h5.8v7.4c-2.1,0.9-4.3,1.4-6.4,1.4c-2.9,0-5.2-0.8-6.9-2.5s-2.6-3.8-2.6-6.2c0-2.6,0.9-4.8,2.7-6.5
			c1.8-1.7,4-2.6,6.7-2.6c1,0,1.9,0.1,2.8,0.3s2,0.6,3.3,1.2v2.5c-2.1-1.2-4.1-1.8-6.2-1.8c-1.9,0-3.5,0.7-4.8,1.9
			c-1.3,1.3-2,2.9-2,4.8c0,1.9,0.7,3.6,2,4.8c1.3,1.3,3,1.9,5,1.9c1,0,2.2-0.2,3.6-0.7l0.2-0.1v-3.6h-3.3L45.5-53.6L45.5-53.6z"/>
		<path d="M55-62.4h9.9v2.2h-7.4v5.3h7.1v2.2h-7.1v5.4h7.6v2.2H55V-62.4z"/>
		<path d="M66.3-62.4h14.6v2.2h-6.1V-45h-2.5v-15.2h-6C66.3-60.2,66.3-62.4,66.3-62.4z"/>
		<path d="M95.5-62.4H98V-45h-2.5v-7.6h-9.8v7.6h-2.5v-17.4h2.5v7.5h9.8C95.5-54.9,95.5-62.4,95.5-62.4z"/>
		<path d="M101.8-62.4h9.9v2.2h-7.4v5.3h7.1v2.2h-7.1v5.4h7.6v2.2h-10.1C101.8-45,101.8-62.4,101.8-62.4z"/>
		<path d="M114.6-45v-17.4h4.4c1.8,0,3.2,0.4,4.2,1.3c1,0.9,1.6,2.1,1.6,3.5c0,1-0.2,1.9-0.8,2.6c-0.5,0.7-1.2,1.3-2.2,1.7
			c0.6,0.4,1.1,0.9,1.6,1.5c0.5,0.6,1.3,1.7,2.2,3.3c0.6,1,1.1,1.7,1.5,2.2l0.9,1.2h-3l-0.8-1.2c0,0-0.1-0.1-0.2-0.2l-0.5-0.7
			l-0.8-1.3l-0.8-1.4c-0.5-0.7-1-1.3-1.4-1.7c-0.4-0.4-0.8-0.7-1.2-0.9c-0.3-0.2-0.9-0.3-1.7-0.3h-0.7v7.6
			C117.1-45,114.6-45,114.6-45z M117.9-60.3h-0.8v5.5h0.9c1.3,0,2.1-0.1,2.6-0.3c0.5-0.2,0.8-0.5,1.1-1c0.3-0.4,0.4-0.9,0.4-1.5
			c0-0.6-0.2-1-0.4-1.5c-0.3-0.4-0.7-0.8-1.2-0.9C120-60.2,119.1-60.3,117.9-60.3L117.9-60.3z"/>
	</g>
</g>
</svg>
