<?xml version="1.0" encoding="utf-8"?>
<!-- Generator: Adobe Illustrator 26.2.1, SVG Export Plug-In . SVG Version: 6.00 Build 0)  -->
<svg version="1.1" id="Layer_1" xmlns="http://www.w3.org/2000/svg" xmlns:xlink="http://www.w3.org/1999/xlink" x="0px" y="0px"
	 viewBox="0 0 1923.4 678" style="enable-background:new 0 0 1923.4 678;" xml:space="preserve">
<style type="text/css">
	.st0{fill:#191919;}
	.st1{fill:#060706;}
	.st2{fill:#151515;}
	.st3{fill:#FFFFFF;}
	.st4{font-family:'GillSans';}
	.st5{font-size:115px;}
	.st6{fill:#D6D5D5;}
	.st7{font-size:40px;}
	.st8{fill:none;stroke:#FFFFFF;stroke-width:2;}
	.st9{fill:none;stroke:#A7A7A7;stroke-width:1.5;}
</style>
<g id="Group_2_00000090977058705000733370000017939599805378259085_" transform="translate(0 0)">
	<path id="Path_9_00000057847921698292867310000004701711408850203025_" class="st0" d="M1905.5,145.4h-9.1l-22,16.7l-11.4-7.6
		h-13.7l-15.2,12.2l-12.9,5.3l-18.7,18.5l-56.7-4.1l-76.1-24.1l-462,76.3l-691.4,249L0,309.8V678h1923.4V132.5L1905.5,145.4z"/>
	<path id="Path_10_00000080917539736161170330000002292796700318672003_" class="st1" d="M1812.2,180.7l-0.3,0.3l0.4,0.6l4.9-0.9
		H1812.2z"/>
	<path id="Path_11_00000044179116473406399170000003227105308497264787_" class="st1" d="M1360.4,0l-14.7,6.2l-9.4,7.6L1314,0h-12
		l-15.6,13.4l-11.1-8.5l-8.5-4.9h-8.9l-5.8,4.9h-11.6l-9.8,17.8l-9.8,2.2l-8-7.1h-9.4l-4.9,6.7l-2.2,9.4l-5.3-3.6h-5.3V37l-15.1,2.1
		l-28.1,5l-3.6-5h-6.2v6.8l-22.7-6.8h-11.9l-12.1,12.1l-14.5,2.7l-14.5,22.3l-10.4,5.7l-3.1,22.1l-16.6,9.4l-5.3-7.8l-13.1-28.6
		l-24.1-17l-15.9-1L958,47.7L946.5,39h-8.8l-6.5,9l-1.8,21.3l-17,15.3l-9.6,4.7l-1,11.2l-10.4,1h-29.8l-4.1,10.1l-11.5,8.5
		l-16.2,20.6l-4.7,12.2l-11.5,5.4v15.2l-3.4,3.7l-8.1,15.9L790,202l-14.9,0.3l-6.8,7.8l-4.4,17.2l-18.6,0.3l-7.8-5.1l-6.1-1l-11.8,3
		l-11.8-19.6l-11.2-0.7l-9.8-13.2h-6.8l-5.8,4.7l-18.3-0.7l-9.8-13.9l-15.2-7.8h-17.9l-15.6,20.6l-7.4,3.1l-2,16.9l-5.4,4.1v12.9
		l-2.7,4.7l-3.4-6.4h-7.4l-3,31.1l3,51.2l-7.4,17l-7.4-18l-12.7-3.2l-14.9,11.7l-18.9,1.5l-14.1-33.9l-11.9-20.3l-7.7-17.9l-8.5-1.2
		l-8.1-17.1l-10.2-2l-11.8-5.7l-17.7-5.1l-17.6-11.3l-23.2,0.6l-21-9.1h-14.2l-15.3-3.5l-22.7,13.1h-14.2l-14.2-5.1l-17.4-1.3
		l-12-6.7h-20.1L202,211.6l-16.1,16.1l-12,25.4l-32.1,22.7l-24.1,13.4l-23-0.8l-13.4,12H57.2l-16.1,9.4L17.4,344l0,0l37.3,16.4
		l6.8,6.5l6.8,0.3l4.1,6.5l9.5,1l2.4,5.1l32.3-2l13.6,7.5l3.4-5.1l9.9,0.3l4.1,3.1v7.8l8.8,0.3l13.9,10.2l47.4,24.4l15.6-3.5
		l7.5-7.5h13.9l7.5,7.5l12.7-7.5h11l5.2,8l9.3-2.9l47.6,40.8l71.5,106.1l33.1-12.9H474l40.4,36.2l21.3-10.8h21.3l7.8,10.8h21.2
		l19.6,8.7l11.8-6.3l22,2.4l48.6,17.3l14.9-4.7h11l17.6,6.6l16.1-3.2h8.2l9.2,8.2l10.3-4.1l10.1-13.5h6.9l12-17l15.5-12.1
		l64.6-120.1l73.9-67.7l12.3-7.1h18.4l10.2-9.2h30.6l18.4-10.2l24.5-17.4l9.2-19.4l12.3-12.3l18.4-13.3h15.3l9.2,5.1l13.3,1
		l10.8,3.9h10.8l17.3-10l11.7,2.7h10.8l16,6.9l17.7-0.4l13.4,8.7l13.5,3.9l9,4.4l7.8,1.5l6.2,13.1l6.5,0.9l5.9,13.7l9.1,15.5
		l10.8,25.9l14.4-1.2l11.3-8.9l9.7,2.4l5.7,13.8l5.7-13l-2.3-39.1l2.3-23.8h5.7l2.6,4.9l2.1-3.6v-9.8l4.1-3.1l1.6-12.9l5.7-2.4
		l11.9-15.7h13.7l11.6,5.9l7.5,10.6l13.9,0.5l4.4-3.6h5.2l7.5,10.1l8.5,0.5l9,15l9-2.3l4.6,0.8l5.9,3.9l14.2-0.3l3.4-13.2l5.2-5.9
		l11.4-0.3l9.3-6.7l6.2-12.1l2.6-2.8v-11.6l8.8-4.1l3.6-9.3l12.4-15.8l8.8-6.5l3.1-7.7h22.7l7.9-0.8l0.7-8.5l7.3-3.6l13-11.7
		l1.3-16.3l4.9-6.9h6.7l8.8,6.6l7.9,8.7l12.1,0.7l18.4,13l10,21.8l4,6l12.7-7.2l2.4-16.9l7.9-4.3l11.1-17.1l9.1-1.7l-47.3-24.3
		l-18.3-13.4l-11.6-0.4V139l-5.3-4l-12.9-0.4l-4.5,6.7l-17.8-9.8l-42.3,2.7l-3.1-6.7l-12.5-1.3l-5.3-8.5l-8.9-0.4l-8.9-8.5
		l-104.2-34.3l-16.9-35.6l-8.9-0.4l-12.5-13.8L1408,20l-4.9-6.7l-12.5-4l-5.3-7.6L1360.4,0z"/>
	<path id="Path_12_00000096775325869507286120000004274038286742364572_" class="st2" d="M1802.4,190.5l9.6-9.5l-2.3-3.3h-4.8v5.2
		l-17.3-5.2h-9.1l-9.3,9.3l-2,0.4l14.8,7.6L1802.4,190.5z"/>
</g>
<text transform="matrix(1 0 0 1 522.1209 442.976)" class="st3 st4 st5">KELSEY FERREIRA</text>
<text transform="matrix(1 0 0 1 762.121 506.976)" class="st6 st4 st7">ARTIST AND DESIGNER</text>
<line id="Line_2" class="st8" x1="1197.4" y1="493" x2="1406.6" y2="493.5"/>
<line id="Line_4" class="st9" x1="129.9" y1="639" x2="1796.9" y2="638"/>
<line id="Line_6" class="st8" x1="526.6" y1="492.5" x2="735.9" y2="493"/>
</svg>
