<?xml version="1.0" encoding="utf-8"?>
<!-- Generator: Adobe Illustrator 26.2.1, SVG Export Plug-In . SVG Version: 6.00 Build 0)  -->
<svg version="1.1" id="Layer_1" xmlns="http://www.w3.org/2000/svg" xmlns:xlink="http://www.w3.org/1999/xlink" x="0px" y="0px"
	 viewBox="0 0 304.3 27.9" style="enable-background:new 0 0 304.3 27.9;" xml:space="preserve">
<style type="text/css">
	.st0{enable-background:new    ;}
	.st1{fill:#FFFFFF;}
</style>
<g class="st0">
	<path class="st1" d="M15.4,0.4h4.9L8.4,13.3l14.7,14.3h-5.3L3.9,14.2v13.5H0V0.4h3.9v12.5L15.4,0.4z"/>
	<path class="st1" d="M26.2,0.4h15.5v3.5H30.1v8.3h11.2v3.5H30.1v8.5H42v3.5H26.2V0.4z"/>
	<path class="st1" d="M46.2,0.4h3.9v23.7h12.3v3.6H46.2V0.4z"/>
	<path class="st1" d="M72.6,16.2l-3-1.8c-1.9-1.1-3.2-2.3-4-3.4c-0.8-1.1-1.2-2.4-1.2-3.8c0-2.1,0.7-3.9,2.2-5.2
		c1.5-1.3,3.4-2,5.8-2c2.3,0,4.4,0.6,6.3,1.9v4.4c-2-1.9-4.1-2.8-6.3-2.8c-1.3,0-2.3,0.3-3.1,0.9C68.4,5,68,5.7,68,6.7
		c0,0.8,0.3,1.6,0.9,2.3c0.6,0.7,1.6,1.5,2.9,2.2l3,1.8c3.3,2,5,4.5,5,7.6c0,2.2-0.7,4-2.2,5.3s-3.4,2.1-5.7,2.1
		c-2.7,0-5.1-0.8-7.4-2.5v-5c2.1,2.7,4.6,4,7.3,4c1.2,0,2.2-0.3,3.1-1c0.8-0.7,1.2-1.5,1.2-2.6C76.2,19.3,75,17.7,72.6,16.2z"/>
	<path class="st1" d="M84.1,0.4h15.5v3.5H88v8.3h11.2v3.5H88v8.5H100v3.5H84.1V0.4z"/>
	<path class="st1" d="M120.5,0.4h4.7l-10.1,12.9v14.4h-4V13.2L101.1,0.4h4.7l7.3,9.4L120.5,0.4z"/>
	<path class="st1" d="M139.4,0.4H154v3.5h-10.6v7.6H154v3.5h-10.6v12.7h-3.9V0.4z"/>
	<path class="st1" d="M158.2,0.4h15.5v3.5h-11.6v8.3h11.2v3.5h-11.2v8.5H174v3.5h-15.8V0.4z"/>
	<path class="st1" d="M178.3,27.6V0.4h6.8c2.8,0,5,0.7,6.6,2.1s2.4,3.2,2.4,5.5c0,1.6-0.4,3-1.2,4.1c-0.8,1.2-1.9,2-3.4,2.6
		c0.9,0.6,1.7,1.4,2.6,2.3c0.8,1,2,2.7,3.5,5.2c1,1.5,1.7,2.7,2.3,3.5l1.4,2h-4.6l-1.2-1.8c0-0.1-0.1-0.2-0.2-0.3l-0.8-1.1l-1.2-2
		l-1.3-2.1c-0.8-1.1-1.5-2-2.2-2.7s-1.3-1.1-1.8-1.4c-0.5-0.3-1.5-0.4-2.7-0.4h-1v11.9H178.3z M183.4,3.7h-1.2v8.6h1.5
		c2,0,3.3-0.2,4.1-0.5c0.7-0.3,1.3-0.8,1.7-1.5s0.6-1.5,0.6-2.3c0-0.9-0.2-1.6-0.7-2.3c-0.5-0.7-1.1-1.2-1.9-1.5
		C186.6,3.8,185.3,3.7,183.4,3.7z"/>
	<path class="st1" d="M202.4,27.6V0.4h6.8c2.8,0,5,0.7,6.6,2.1s2.4,3.2,2.4,5.5c0,1.6-0.4,3-1.2,4.1c-0.8,1.2-1.9,2-3.4,2.6
		c0.9,0.6,1.7,1.4,2.6,2.3c0.8,1,2,2.7,3.5,5.2c1,1.5,1.7,2.7,2.3,3.5l1.4,2h-4.6l-1.2-1.8c0-0.1-0.1-0.2-0.2-0.3l-0.8-1.1l-1.2-2
		l-1.3-2.1c-0.8-1.1-1.5-2-2.2-2.7s-1.3-1.1-1.8-1.4c-0.5-0.3-1.5-0.4-2.7-0.4h-1v11.9H202.4z M207.5,3.7h-1.2v8.6h1.5
		c2,0,3.3-0.2,4.1-0.5c0.7-0.3,1.3-0.8,1.7-1.5s0.6-1.5,0.6-2.3c0-0.9-0.2-1.6-0.7-2.3c-0.5-0.7-1.1-1.2-1.9-1.5
		C210.8,3.8,209.4,3.7,207.5,3.7z"/>
	<path class="st1" d="M226.5,0.4H242v3.5h-11.6v8.3h11.2v3.5h-11.2v8.5h11.9v3.5h-15.8V0.4z"/>
	<path class="st1" d="M246.5,0.4h3.9v27.3h-3.9V0.4z"/>
	<path class="st1" d="M256.6,27.6V0.4h6.8c2.8,0,5,0.7,6.6,2.1s2.4,3.2,2.4,5.5c0,1.6-0.4,3-1.2,4.1c-0.8,1.2-1.9,2-3.4,2.6
		c0.9,0.6,1.7,1.4,2.6,2.3c0.8,1,2,2.7,3.5,5.2c1,1.5,1.7,2.7,2.3,3.5l1.4,2H273l-1.2-1.8c0-0.1-0.1-0.2-0.2-0.3l-0.8-1.1l-1.2-2
		l-1.3-2.1c-0.8-1.1-1.5-2-2.2-2.7c-0.7-0.7-1.3-1.1-1.8-1.4c-0.5-0.3-1.5-0.4-2.7-0.4h-1v11.9H256.6z M261.7,3.7h-1.2v8.6h1.5
		c2,0,3.3-0.2,4.1-0.5c0.7-0.3,1.3-0.8,1.7-1.5s0.6-1.5,0.6-2.3c0-0.9-0.2-1.6-0.7-2.3c-0.5-0.7-1.1-1.2-1.9-1.5
		C265,3.8,263.6,3.7,261.7,3.7z"/>
	<path class="st1" d="M289.4,0.2h2.7l12.2,27.4h-4l-3.6-8.1h-11.6l-3.4,8.1h-4L289.4,0.2z M295.1,16.1l-4.4-9.9l-4.1,9.9H295.1z"/>
</g>
</svg>
